<?xml version="1.0" encoding="UTF-8"?>
<!DOCTYPE svg PUBLIC "-//W3C//DTD SVG 1.1//EN" "http://www.w3.org/Graphics/SVG/1.1/DTD/svg11.dtd">
<svg xmlns="http://www.w3.org/2000/svg" version="1.1" width="944px" height="831px" style="shape-rendering:geometricPrecision; text-rendering:geometricPrecision; image-rendering:optimizeQuality; fill-rule:evenodd; clip-rule:evenodd" xmlns:xlink="http://www.w3.org/1999/xlink">
<g><path style="opacity:1" fill="#fefefe" d="M 171.5,-0.5 C 370.833,-0.5 570.167,-0.5 769.5,-0.5C 842.491,9.89975 894.991,48.2331 927,114.5C 934.815,133.095 939.815,152.428 942,172.5C 942.667,334.5 942.667,496.5 942,658.5C 932.007,731.712 893.84,784.212 827.5,816C 811.255,822.723 794.588,827.557 777.5,830.5C 572.833,830.5 368.167,830.5 163.5,830.5C 72.5,812.167 17.8333,757.5 -0.5,666.5C -0.5,499.167 -0.5,331.833 -0.5,164.5C 6.43801,122.29 24.7713,85.9564 54.5,55.5C 56.7488,54.9202 58.4154,53.5869 59.5,51.5C 81.1464,30.7544 106.48,15.921 135.5,7C 147.482,3.73084 159.482,1.23084 171.5,-0.5 Z"/></g>
<g><path style="opacity:1" fill="#b6baf4" d="M 59.5,51.5 C 58.4154,53.5869 56.7488,54.9202 54.5,55.5C 55.5846,53.4131 57.2512,52.0798 59.5,51.5 Z"/></g>
<g><path style="opacity:1" fill="#07004d" d="M 579.5,494.5 C 580.167,506.833 580.833,519.167 581.5,531.5C 581.667,553.503 581.5,575.503 581,597.5C 572.441,608.541 561.274,615.708 547.5,619C 513.627,628.16 484.794,619.994 461,594.5C 450.571,577.314 440.905,559.647 432,541.5C 424.344,528.843 413.844,519.343 400.5,513C 389.952,510.073 379.286,509.74 368.5,512C 367.344,526.092 367.177,540.258 368,554.5C 369.856,574.989 372.689,595.323 376.5,615.5C 333.167,615.5 289.833,615.5 246.5,615.5C 250.634,593.357 253.467,571.023 255,548.5C 256.992,479.167 256.992,409.834 255,340.5C 253.684,319.939 250.851,299.606 246.5,279.5C 289.833,279.5 333.167,279.5 376.5,279.5C 371.958,301.578 369.124,323.912 368,346.5C 366.693,382.154 366.193,417.82 366.5,453.5C 367.978,453.762 369.311,453.429 370.5,452.5C 382.949,408.886 411.282,381.72 455.5,371C 474.506,369.052 493.506,369.052 512.5,371C 527.263,373.384 540.597,379.051 552.5,388C 567.167,403.593 572.667,422.093 569,443.5C 565.067,459.085 556.234,470.919 542.5,479C 521.93,490.051 499.93,496.051 476.5,497C 470.175,497.5 463.842,497.666 457.5,497.5C 457.201,499.604 457.534,501.604 458.5,503.5C 462.302,504.228 465.969,505.394 469.5,507C 479.243,513.067 489.243,518.734 499.5,524C 520.774,531.511 541.107,529.511 560.5,518C 569.285,512.058 575.618,504.225 579.5,494.5 Z"/></g>
<g><path style="opacity:1" fill="#fcfcfd" d="M 428.5,485.5 C 408.5,485.5 388.5,485.5 368.5,485.5C 368.5,484.5 368.5,483.5 368.5,482.5C 372.129,470.355 379.129,460.522 389.5,453C 407.75,440.014 427.416,437.348 448.5,445C 457.328,450.842 460.494,459.008 458,469.5C 456.998,473.164 455.164,476.331 452.5,479C 445.274,483.881 437.274,486.048 428.5,485.5 Z"/></g>
<g><path style="opacity:1" fill="#827fa5" d="M 368.5,482.5 C 368.5,483.5 368.5,484.5 368.5,485.5C 388.5,485.5 408.5,485.5 428.5,485.5C 408.34,486.497 388.007,486.83 367.5,486.5C 367.232,484.901 367.566,483.568 368.5,482.5 Z"/></g>
<g><path style="opacity:1" fill="#47417a" d="M 581.5,531.5 C 580.833,519.167 580.167,506.833 579.5,494.5C 579.987,493.527 580.487,492.527 581,491.5C 581.5,504.829 581.667,518.163 581.5,531.5 Z"/></g>
<g><path style="opacity:1" fill="#08014d" d="M 651.5,532.5 C 675.73,532.857 691.563,544.524 699,567.5C 701.102,594.168 689.602,611.668 664.5,620C 637.615,622.648 620.115,611.148 612,585.5C 608.893,561.547 618.393,544.714 640.5,535C 644.28,534.082 647.946,533.249 651.5,532.5 Z"/></g>
</svg>
