<svg width="50" height="50" viewBox="0 0 50 50" fill="none" xmlns="http://www.w3.org/2000/svg">
<path d="M0 6C0 2.68629 2.68629 0 6 0H26C39.2548 0 50 10.7452 50 24V44C50 47.3137 47.3137 50 44 50H24C10.7452 50 0 39.2548 0 26V6Z" fill="black"/>
<path d="M20.0888 30.4L17.6888 27.376L23.6168 21.16H29.9528L20.0888 30.4ZM15.3128 34V16.24H20.1848V34H15.3128ZM24.0488 34L19.7768 27.976L23.1848 25.528L29.6168 34H24.0488ZM33.0235 34.264C32.2715 34.264 31.6875 34.056 31.2715 33.64C30.8555 33.224 30.6475 32.632 30.6475 31.864C30.6475 31.16 30.8635 30.584 31.2955 30.136C31.7435 29.688 32.3195 29.464 33.0235 29.464C33.7755 29.464 34.3595 29.672 34.7755 30.088C35.1915 30.504 35.3995 31.096 35.3995 31.864C35.3995 32.568 35.1755 33.144 34.7275 33.592C34.2955 34.04 33.7275 34.264 33.0235 34.264Z" fill="white"/>
</svg>
