<svg width="50" height="50" viewBox="0 0 50 50" fill="none" xmlns="http://www.w3.org/2000/svg">
<rect width="50" height="50" rx="12" fill="#F2F3F4"/>
<path d="M15.7203 33.3466L17.1522 24.9602H18.0726L23.9533 18.3636H31.8794L22.2147 28.642H20.2203L15.7203 33.3466ZM8.61239 38L12.959 11.8182H20.0158L15.6692 38H8.61239ZM20.7317 38L17.5101 30.2273L22.9817 25.2159L28.8113 38H20.7317ZM34.4331 38.4091C33.4359 38.4091 32.622 38.0639 31.9913 37.3736C31.3691 36.6747 31.1092 35.8267 31.2115 34.8295C31.3137 33.858 31.7527 33.027 32.5282 32.3366C33.3123 31.6463 34.2029 31.3011 35.2001 31.3011C36.1461 31.3011 36.9345 31.6463 37.5652 32.3366C38.2044 33.027 38.4728 33.858 38.3706 34.8295C38.3024 35.4943 38.068 36.0994 37.6674 36.6449C37.2754 37.1818 36.7896 37.6122 36.2101 37.9361C35.639 38.2514 35.0467 38.4091 34.4331 38.4091Z" fill="#1B1B1B"/>
</svg>
