<svg width="129" height="30" viewBox="0 0 129 30" fill="none" xmlns="http://www.w3.org/2000/svg">
<path d="M0.431996 29L4.77859 2.81818H11.8865L8.51154 23.2727H19.0968L18.1252 29H0.431996ZM21.1007 29L24.3734 9.36364H31.4302L28.1575 29H21.1007ZM28.2086 7.31818C27.2541 7.31818 26.4828 7.00284 25.8947 6.37216C25.3066 5.73295 25.0893 4.97443 25.2427 4.09659C25.3961 3.2017 25.8649 2.44318 26.649 1.82102C27.4331 1.19034 28.3024 0.875 29.2569 0.875C30.22 0.875 30.987 1.19034 31.5581 1.82102C32.1291 2.44318 32.3422 3.2017 32.1973 4.09659C32.0609 4.97443 31.6007 5.73295 30.8166 6.37216C30.041 7.00284 29.1717 7.31818 28.2086 7.31818ZM40.7019 17.9545L38.861 29H31.8042L35.0769 9.36364H41.7757L41.1621 13.0966H41.3667C41.9888 11.8437 42.8965 10.8679 44.0897 10.169C45.2914 9.46165 46.6167 9.10795 48.0655 9.10795C49.4547 9.10795 50.6096 9.4233 51.53 10.054C52.4505 10.6847 53.1025 11.554 53.486 12.6619C53.8695 13.7699 53.9377 15.0398 53.6905 16.4716L51.5939 29H44.5371L46.378 17.9545C46.54 16.983 46.4206 16.2202 46.0201 15.6662C45.628 15.1122 44.9803 14.8352 44.0769 14.8352C43.5059 14.8352 42.9817 14.9631 42.5044 15.2188C42.0357 15.4659 41.6436 15.8239 41.3283 16.2926C41.0215 16.7528 40.8127 17.3068 40.7019 17.9545ZM62.1344 24.3466L63.5662 15.9602H64.4867L70.3674 9.36364H78.2935L68.6287 19.642H66.6344L62.1344 24.3466ZM55.0265 29L59.373 2.81818H66.4299L62.0833 29H55.0265ZM67.1458 29L63.9242 21.2273L69.3958 16.2159L75.2253 29H67.1458ZM83.9664 24.3466L85.3983 15.9602H86.3187L92.1994 9.36364H100.126L90.4608 19.642H88.4664L83.9664 24.3466ZM76.8585 29L81.2051 2.81818H88.2619L83.9153 29H76.8585ZM88.9778 29L85.7562 21.2273L91.2278 16.2159L97.0574 29H88.9778ZM105.798 24.3466L107.23 15.9602H108.151L114.031 9.36364H121.958L112.293 19.642H110.298L105.798 24.3466ZM98.6905 29L103.037 2.81818H110.094L105.747 29H98.6905ZM110.81 29L107.588 21.2273L113.06 16.2159L118.889 29H110.81ZM124.511 29.4091C123.514 29.4091 122.7 29.0639 122.069 28.3736C121.447 27.6747 121.187 26.8267 121.29 25.8295C121.392 24.858 121.831 24.027 122.606 23.3366C123.39 22.6463 124.281 22.3011 125.278 22.3011C126.224 22.3011 127.013 22.6463 127.643 23.3366C128.282 24.027 128.551 24.858 128.449 25.8295C128.381 26.4943 128.146 27.0994 127.746 27.6449C127.354 28.1818 126.868 28.6122 126.288 28.9361C125.717 29.2514 125.125 29.4091 124.511 29.4091Z" fill="#1B1B1B"/>
</svg>
