<svg width="404" height="229" viewBox="0 0 404 229" fill="none" xmlns="http://www.w3.org/2000/svg">
<rect y="60.2349" width="280" height="97" rx="24" transform="rotate(-10.1275 0 60.2349)" fill="#E7E8E9"/>
<rect x="18.564" y="73.1721" width="65" height="65" rx="12" transform="rotate(-10.1275 18.564 73.1721)" fill="#1B1B1B" fill-opacity="0.1"/>
<g clip-path="url(#clip0_1170_13)">
<rect x="106.177" y="57.5225" width="131" height="13.6667" rx="6.83333" transform="rotate(-10.1275 106.177 57.5225)" fill="#D9D9D9"/>
<rect x="110.69" y="82.7892" width="159" height="13.6667" rx="6.83333" transform="rotate(-10.1275 110.69 82.7892)" fill="#D9D9D9"/>
<rect x="115.204" y="108.056" width="66" height="13.6667" rx="6.83333" transform="rotate(-10.1275 115.204 108.056)" fill="#D9D9D9"/>
</g>
<path d="M249.608 189.628C239.074 185.035 230.527 179.607 223.969 173.346C217.397 167.117 212.86 160.208 210.359 152.619C207.857 145.031 207.441 136.956 209.109 128.395C210.778 119.834 214.579 110.942 220.512 101.718C226.495 92.5536 233.472 84.8358 241.443 78.5642C249.428 72.2605 258.144 67.6131 267.589 64.622C277.081 61.6127 287.086 60.4516 297.604 61.1386C308.154 61.8396 318.953 64.5987 330.001 69.416C339.958 73.7571 348.115 78.938 354.472 84.9589C360.876 90.9616 365.338 97.6469 367.859 105.015C370.426 112.365 370.927 120.247 369.36 128.661C367.794 137.075 364.019 145.864 358.036 155.028C354.003 161.297 349.74 166.471 345.247 170.552C340.8 174.614 336.119 177.637 331.202 179.622C326.317 181.62 321.238 182.616 315.966 182.611C310.726 182.62 305.319 181.695 299.745 179.839C294.763 178.202 291.521 176.52 290.018 174.795C288.515 173.069 287.967 171.302 288.374 169.491C288.781 167.681 289.375 165.838 290.155 163.961L289.577 163.709C287.649 165.238 284.885 166.097 281.286 166.286C277.687 166.475 273.832 166.113 269.72 165.199C265.608 164.286 261.825 162.923 258.372 161.112C254.983 159.328 251.95 156.993 249.272 154.105C246.626 151.232 244.697 147.81 243.484 143.841C242.271 139.873 242.138 135.4 243.085 130.423C244.046 125.414 246.433 119.938 250.248 113.995C254.141 108.047 258.304 103.365 262.737 99.9464C267.203 96.5421 271.695 94.0859 276.213 92.5775C280.764 91.0832 285.116 90.3053 289.271 90.2439C293.458 90.1965 297.189 90.581 300.464 91.3975C304.787 92.4414 308.612 94.0135 311.939 96.1139C315.28 98.1822 317.866 100.361 319.697 102.65C321.541 104.906 322.364 106.832 322.166 108.428L322.936 108.764L326.06 103.704L344.367 111.686L314.764 157.49C313.699 159.319 313.267 160.66 313.469 161.512C313.67 162.365 314.173 162.966 314.976 163.316C316.485 163.974 318.437 163.793 320.831 162.773C323.24 161.721 325.934 159.704 328.916 156.723C331.912 153.71 335.061 149.598 338.365 144.388C342.722 137.725 345.405 131.747 346.414 126.454C347.468 121.142 347.3 116.443 345.909 112.358C344.531 108.241 342.334 104.646 339.317 101.572C336.345 98.4798 332.957 95.8177 329.153 93.5855C325.394 91.3352 321.7 89.4188 318.071 87.8364C309.753 84.2095 301.851 82.2552 294.368 81.9737C286.898 81.6601 279.937 82.6769 273.486 85.0243C267.081 87.3536 261.286 90.6943 256.102 95.0464C250.931 99.3663 246.494 104.369 242.792 110.056C238.453 116.764 235.657 123.133 234.404 129.161C233.152 135.189 233.416 140.809 235.196 146.019C236.976 151.229 240.215 155.985 244.913 160.289C249.629 164.639 255.777 168.466 263.357 171.771C267.179 173.437 271.003 174.837 274.828 175.97C278.672 177.149 282.312 178.048 285.75 178.667C289.205 179.333 292.269 179.714 294.942 179.808L290.656 198.58C287.787 198.935 284.181 198.834 279.837 198.278C275.511 197.768 270.743 196.779 265.535 195.311C260.345 193.889 255.036 191.994 249.608 189.628ZM278.011 146.052C281.704 147.663 285.001 148.298 287.902 147.957C290.849 147.598 293.516 146.391 295.902 144.336C298.335 142.262 300.637 139.481 302.808 135.994C304.457 133.35 305.67 130.744 306.445 128.177C307.266 125.592 307.091 123.145 305.918 120.838C304.792 118.512 302.125 116.432 297.918 114.597C294.417 113.071 291.076 112.36 287.897 112.464C284.731 112.536 281.781 113.429 279.046 115.141C276.326 116.822 273.876 119.328 271.698 122.659C269.928 125.404 268.751 128.235 268.166 131.153C267.628 134.053 268.071 136.807 269.495 139.415C270.965 142.005 273.803 144.218 278.011 146.052Z" fill="#D9D9D9"/>
<defs>
<clipPath id="clip0_1170_13">
<rect width="159" height="65" fill="white" transform="translate(106.177 57.5225) rotate(-10.1275)"/>
</clipPath>
</defs>
</svg>
