<svg width="207" height="69" viewBox="0 0 207 69" fill="none" xmlns="http://www.w3.org/2000/svg">
<path d="M2.89329 0.943547C2.58563 0.174372 1.71267 -0.199754 0.943494 0.107915C0.174319 0.415584 -0.199807 1.28854 0.107862 2.05772L1.50058 1.50063L2.89329 0.943547ZM98.0005 66.5007L97.8348 65.0099L98.0005 66.5007ZM202.962 1.16412C202.777 0.356759 201.972 -0.147233 201.164 0.0384178L188.008 3.06377C187.2 3.24942 186.696 4.05441 186.882 4.86177C187.068 5.66913 187.873 6.17312 188.68 5.98747L200.375 3.29827L203.064 14.9931C203.25 15.8004 204.055 16.3044 204.862 16.1188C205.669 15.9331 206.173 15.1281 205.988 14.3208L202.962 1.16412ZM1.50058 1.50063C0.107862 2.05772 0.107891 2.05779 0.107922 2.05786C0.107934 2.05789 0.107966 2.05797 0.10799 2.05803C0.108039 2.05816 0.108094 2.05829 0.108155 2.05845C0.108278 2.05875 0.108426 2.05912 0.1086 2.05956C0.108946 2.06042 0.109394 2.06154 0.109942 2.0629C0.111039 2.06563 0.11254 2.06936 0.114445 2.07408C0.118255 2.08352 0.123683 2.09692 0.130733 2.11423C0.144831 2.14884 0.165416 2.19906 0.19252 2.26437C0.246727 2.39501 0.327013 2.58607 0.433634 2.83351C0.646866 3.32837 0.96549 4.0489 1.39155 4.96278L2.75106 4.32897L4.11058 3.69515C3.69763 2.80939 3.39101 2.11575 3.18875 1.64636C3.08763 1.41167 3.01261 1.23308 2.96344 1.11459C2.93886 1.05535 2.92074 1.01114 2.90906 0.982467C2.90322 0.968129 2.89899 0.957675 2.89636 0.951167C2.89505 0.947914 2.89414 0.945646 2.89363 0.944374C2.89337 0.943737 2.89322 0.94335 2.89316 0.943212C2.89313 0.943143 2.89313 0.943136 2.89315 0.943192C2.89316 0.94322 2.89318 0.943263 2.8932 0.943323C2.89322 0.943352 2.89324 0.943408 2.89324 0.943423C2.89327 0.943483 2.89329 0.943547 1.50058 1.50063ZM5.55007 9.91455L4.22673 10.6208C5.11515 12.2855 6.15084 14.1397 7.33696 16.1338L8.62615 15.367L9.91533 14.6002C8.75458 12.6487 7.74159 10.8351 6.8734 9.20831L5.55007 9.91455ZM11.9318 20.6507L10.6783 21.4747C11.7812 23.1525 12.9737 24.8879 14.2574 26.6588L15.4719 25.7784L16.6864 24.898C15.4311 23.1663 14.2645 21.4687 13.1852 19.8268L11.9318 20.6507ZM19.262 30.7545L18.0909 31.6918C19.3732 33.2938 20.7276 34.9076 22.1551 36.518L23.2776 35.523L24.4 34.528C23.0076 32.9572 21.6856 31.382 20.433 29.8171L19.262 30.7545ZM27.5494 40.092L26.4819 41.1458C27.9386 42.6215 29.4593 44.0818 31.045 45.5146L32.0506 44.4016L33.0563 43.2886C31.515 41.896 30.0355 40.4753 28.6169 39.0382L27.5494 40.092ZM36.808 48.4456L35.8723 49.618C37.5072 50.9227 39.2021 52.1916 40.9577 53.4138L41.8147 52.1828L42.6718 50.9517C40.9721 49.7685 39.3296 48.5389 37.7437 47.2732L36.808 48.4456ZM47.0505 55.5669L46.2809 56.8544C48.079 57.9292 49.9337 58.9516 51.8455 59.9119L52.5188 58.5716L53.1921 57.2312C51.348 56.3048 49.5575 55.3179 47.8201 54.2794L47.0505 55.5669ZM58.2009 61.1601L57.6321 62.5481C59.5728 63.3435 61.5664 64.0732 63.6133 64.7289L64.0709 63.3004L64.5285 61.872C62.5586 61.2409 60.6392 60.5383 58.7698 59.7722L58.2009 61.1601ZM70.0764 64.9634L69.7342 66.4238C71.7661 66.8999 73.8456 67.3026 75.9729 67.6249L76.1977 66.1419L76.4224 64.6588C74.3747 64.3485 72.3736 63.961 70.4186 63.5029L70.0764 64.9634ZM82.3949 66.8328L82.287 68.3289C84.3609 68.4786 86.4764 68.5523 88.6338 68.5444L88.6283 67.0444L88.6228 65.5444C86.541 65.552 84.5011 65.4809 82.5029 65.3367L82.3949 66.8328ZM94.8606 66.7946L94.9742 68.2903C96.0289 68.2102 97.0929 68.1108 98.1661 67.9916L98.0005 66.5007L97.8348 65.0099C96.796 65.1253 95.7668 65.2215 94.747 65.2989L94.8606 66.7946ZM98.0005 66.5007L98.1661 67.9916C99.234 67.8729 100.294 67.7419 101.346 67.5989L101.144 66.1126L100.942 64.6262C99.9142 64.7659 98.8783 64.894 97.8348 65.0099L98.0005 66.5007ZM107.362 65.1132L107.636 66.5879C109.747 66.1956 111.825 65.7558 113.869 65.272L113.523 63.8123L113.178 62.3527C111.181 62.8253 109.151 63.2551 107.088 63.6384L107.362 65.1132ZM119.614 62.214L120.03 63.6552C122.092 63.0604 124.117 62.422 126.105 61.744L125.621 60.3243L125.137 58.9046C123.193 59.5674 121.214 60.1915 119.199 60.7727L119.614 62.214ZM131.53 58.1518L132.08 59.5471C134.075 58.7598 136.03 57.9341 137.943 57.075L137.329 55.7066L136.714 54.3382C134.842 55.1789 132.93 55.9865 130.979 56.7565L131.53 58.1518ZM143.014 52.9967L143.69 54.3359C145.61 53.3671 147.485 52.3668 149.314 51.3404L148.58 50.0323L147.845 48.7242C146.054 49.7295 144.218 50.7091 142.339 51.6575L143.014 52.9967ZM154.008 46.8304L154.797 48.1058C156.627 46.9733 158.406 45.8182 160.133 44.6469L159.291 43.4054L158.449 42.164C156.755 43.3126 155.012 44.445 153.218 45.555L154.008 46.8304ZM164.422 39.7721L165.313 40.9786C167.056 39.6908 168.74 38.3921 170.364 37.0904L169.425 35.92L168.487 34.7497C166.893 36.0275 165.241 37.3021 163.531 38.5656L164.422 39.7721ZM174.261 31.8879L175.243 33.0213C176.891 31.5935 178.465 30.1721 179.967 28.7677L178.942 27.6722L177.918 26.5766C176.443 27.9561 174.896 29.3522 173.278 30.7544L174.261 31.8879ZM183.461 23.2856L184.525 24.3422C186.091 22.7643 187.558 21.2246 188.925 19.74L187.821 18.724L186.718 17.708C185.375 19.1663 183.934 20.6788 182.396 22.229L183.461 23.2856ZM192.001 14.0075L193.142 14.9804C194.662 13.197 196.004 11.5437 197.166 10.0598L195.986 9.13468L194.805 8.20958C193.666 9.66289 192.35 11.2842 190.859 13.0346L192.001 14.0075ZM199.743 4.09703L200.969 4.96167C201.562 4.12129 202.009 3.46022 202.31 3.00664C202.461 2.77985 202.574 2.6049 202.651 2.48534C202.69 2.42555 202.719 2.37961 202.739 2.34795C202.749 2.33212 202.757 2.31986 202.763 2.31123C202.765 2.30691 202.767 2.3035 202.769 2.301C202.77 2.29975 202.77 2.29873 202.771 2.29794C202.771 2.29755 202.771 2.29721 202.772 2.29693C202.772 2.29679 202.772 2.29666 202.772 2.29655C202.772 2.29649 202.772 2.29642 202.772 2.29639C202.772 2.29632 202.772 2.29626 201.501 1.50027C200.229 0.704278 200.229 0.704219 200.229 0.704164C200.229 0.70415 200.229 0.704099 200.229 0.704071C200.229 0.704017 200.229 0.703977 200.229 0.703951C200.229 0.703899 200.229 0.703905 200.229 0.703968C200.229 0.704093 200.229 0.704447 200.229 0.705028C200.228 0.706191 200.227 0.708264 200.225 0.71124C200.221 0.717192 200.215 0.726757 200.207 0.73988C200.19 0.766126 200.164 0.806605 200.129 0.860876C200.059 0.969421 199.953 1.13313 199.81 1.3485C199.524 1.77925 199.093 2.41656 198.518 3.23239L199.743 4.09703ZM2.89329 0.943547C2.58563 0.174372 1.71267 -0.199754 0.943494 0.107915C0.174319 0.415584 -0.199807 1.28854 0.107862 2.05772L1.50058 1.50063L2.89329 0.943547ZM98.0005 66.5007L97.8348 65.0099L98.0005 66.5007ZM202.962 1.16412C202.777 0.356759 201.972 -0.147233 201.164 0.0384178L188.008 3.06377C187.2 3.24942 186.696 4.05441 186.882 4.86177C187.068 5.66913 187.873 6.17312 188.68 5.98747L200.375 3.29827L203.064 14.9931C203.25 15.8004 204.055 16.3044 204.862 16.1188C205.669 15.9331 206.173 15.1281 205.988 14.3208L202.962 1.16412ZM1.50058 1.50063C0.107862 2.05772 0.107891 2.05779 0.107922 2.05786C0.107934 2.05789 0.107966 2.05797 0.10799 2.05803C0.108039 2.05816 0.108094 2.05829 0.108155 2.05845C0.108278 2.05875 0.108426 2.05912 0.1086 2.05956C0.108946 2.06042 0.109394 2.06154 0.109942 2.0629C0.111039 2.06563 0.11254 2.06936 0.114445 2.07408C0.118255 2.08352 0.123683 2.09692 0.130733 2.11423C0.144831 2.14884 0.165416 2.19906 0.19252 2.26437C0.246727 2.39501 0.327013 2.58607 0.433634 2.83351C0.646866 3.32837 0.96549 4.0489 1.39155 4.96278L2.75106 4.32897L4.11058 3.69515C3.69763 2.80939 3.39101 2.11575 3.18875 1.64636C3.08763 1.41167 3.01261 1.23308 2.96344 1.11459C2.93886 1.05535 2.92074 1.01114 2.90906 0.982467C2.90322 0.968129 2.89899 0.957675 2.89636 0.951167C2.89505 0.947914 2.89414 0.945646 2.89363 0.944374C2.89337 0.943737 2.89322 0.94335 2.89316 0.943212C2.89313 0.943143 2.89313 0.943136 2.89315 0.943192C2.89316 0.94322 2.89318 0.943263 2.8932 0.943323C2.89322 0.943352 2.89324 0.943408 2.89324 0.943423C2.89327 0.943483 2.89329 0.943547 1.50058 1.50063ZM5.55007 9.91455L4.22673 10.6208C5.11515 12.2855 6.15084 14.1397 7.33696 16.1338L8.62615 15.367L9.91533 14.6002C8.75458 12.6487 7.74159 10.8351 6.8734 9.20831L5.55007 9.91455ZM11.9318 20.6507L10.6783 21.4747C11.7812 23.1525 12.9737 24.8879 14.2574 26.6588L15.4719 25.7784L16.6864 24.898C15.4311 23.1663 14.2645 21.4687 13.1852 19.8268L11.9318 20.6507ZM19.262 30.7545L18.0909 31.6918C19.3732 33.2938 20.7276 34.9076 22.1551 36.518L23.2776 35.523L24.4 34.528C23.0076 32.9572 21.6856 31.382 20.433 29.8171L19.262 30.7545ZM27.5494 40.092L26.4819 41.1458C27.9386 42.6215 29.4593 44.0818 31.045 45.5146L32.0506 44.4016L33.0563 43.2886C31.515 41.896 30.0355 40.4753 28.6169 39.0382L27.5494 40.092ZM36.808 48.4456L35.8723 49.618C37.5072 50.9227 39.2021 52.1916 40.9577 53.4138L41.8147 52.1828L42.6718 50.9517C40.9721 49.7685 39.3296 48.5389 37.7437 47.2732L36.808 48.4456ZM47.0505 55.5669L46.2809 56.8544C48.079 57.9292 49.9337 58.9516 51.8455 59.9119L52.5188 58.5716L53.1921 57.2312C51.348 56.3048 49.5575 55.3179 47.8201 54.2794L47.0505 55.5669ZM58.2009 61.1601L57.6321 62.5481C59.5728 63.3435 61.5664 64.0732 63.6133 64.7289L64.0709 63.3004L64.5285 61.872C62.5586 61.2409 60.6392 60.5383 58.7698 59.7722L58.2009 61.1601ZM70.0764 64.9634L69.7342 66.4238C71.7661 66.8999 73.8456 67.3026 75.9729 67.6249L76.1977 66.1419L76.4224 64.6588C74.3747 64.3485 72.3736 63.961 70.4186 63.5029L70.0764 64.9634ZM82.3949 66.8328L82.287 68.3289C84.3609 68.4786 86.4764 68.5523 88.6338 68.5444L88.6283 67.0444L88.6228 65.5444C86.541 65.552 84.5011 65.4809 82.5029 65.3367L82.3949 66.8328ZM94.8606 66.7946L94.9742 68.2903C96.0289 68.2102 97.0929 68.1108 98.1661 67.9916L98.0005 66.5007L97.8348 65.0099C96.796 65.1253 95.7668 65.2215 94.747 65.2989L94.8606 66.7946ZM98.0005 66.5007L98.1661 67.9916C99.234 67.8729 100.294 67.7419 101.346 67.5989L101.144 66.1126L100.942 64.6262C99.9142 64.7659 98.8783 64.894 97.8348 65.0099L98.0005 66.5007ZM107.362 65.1132L107.636 66.5879C109.747 66.1956 111.825 65.7558 113.869 65.272L113.523 63.8123L113.178 62.3527C111.181 62.8253 109.151 63.2551 107.088 63.6384L107.362 65.1132ZM119.614 62.214L120.03 63.6552C122.092 63.0604 124.117 62.422 126.105 61.744L125.621 60.3243L125.137 58.9046C123.193 59.5674 121.214 60.1915 119.199 60.7727L119.614 62.214ZM131.53 58.1518L132.08 59.5471C134.075 58.7598 136.03 57.9341 137.943 57.075L137.329 55.7066L136.714 54.3382C134.842 55.1789 132.93 55.9865 130.979 56.7565L131.53 58.1518ZM143.014 52.9967L143.69 54.3359C145.61 53.3671 147.485 52.3668 149.314 51.3404L148.58 50.0323L147.845 48.7242C146.054 49.7295 144.218 50.7091 142.339 51.6575L143.014 52.9967ZM154.008 46.8304L154.797 48.1058C156.627 46.9733 158.406 45.8182 160.133 44.6469L159.291 43.4054L158.449 42.164C156.755 43.3126 155.012 44.445 153.218 45.555L154.008 46.8304ZM164.422 39.7721L165.313 40.9786C167.056 39.6908 168.74 38.3921 170.364 37.0904L169.425 35.92L168.487 34.7497C166.893 36.0275 165.241 37.3021 163.531 38.5656L164.422 39.7721ZM174.261 31.8879L175.243 33.0213C176.891 31.5935 178.465 30.1721 179.967 28.7677L178.942 27.6722L177.918 26.5766C176.443 27.9561 174.896 29.3522 173.278 30.7544L174.261 31.8879ZM183.461 23.2856L184.525 24.3422C186.091 22.7643 187.558 21.2246 188.925 19.74L187.821 18.724L186.718 17.708C185.375 19.1663 183.934 20.6788 182.396 22.229L183.461 23.2856ZM192.001 14.0075L193.142 14.9804C194.662 13.197 196.004 11.5437 197.166 10.0598L195.986 9.13468L194.805 8.20958C193.666 9.66289 192.35 11.2842 190.859 13.0346L192.001 14.0075ZM199.743 4.09703L200.969 4.96167C201.562 4.12129 202.009 3.46022 202.31 3.00664C202.461 2.77985 202.574 2.6049 202.651 2.48534C202.69 2.42555 202.719 2.37961 202.739 2.34795C202.749 2.33212 202.757 2.31986 202.763 2.31123C202.765 2.30691 202.767 2.3035 202.769 2.301C202.77 2.29975 202.77 2.29873 202.771 2.29794C202.771 2.29755 202.771 2.29721 202.772 2.29693C202.772 2.29679 202.772 2.29666 202.772 2.29655C202.772 2.29649 202.772 2.29642 202.772 2.29639C202.772 2.29632 202.772 2.29626 201.501 1.50027C200.229 0.704278 200.229 0.704219 200.229 0.704164C200.229 0.70415 200.229 0.704099 200.229 0.704071C200.229 0.704017 200.229 0.703977 200.229 0.703951C200.229 0.703899 200.229 0.703905 200.229 0.703968C200.229 0.704093 200.229 0.704447 200.229 0.705028C200.228 0.706191 200.227 0.708264 200.225 0.71124C200.221 0.717192 200.215 0.726757 200.207 0.73988C200.19 0.766126 200.164 0.806605 200.129 0.860876C200.059 0.969421 199.953 1.13313 199.81 1.3485C199.524 1.77925 199.093 2.41656 198.518 3.23239L199.743 4.09703Z" fill="#72D763" fill-opacity="0.5"/>
</svg>
