<svg width="31" height="28" viewBox="0 0 31 28" fill="none" xmlns="http://www.w3.org/2000/svg">
<path d="M7.72035 22.3466L9.15217 13.9602H10.0726L15.9533 7.36364H23.8794L14.2147 17.642H12.2203L7.72035 22.3466ZM0.612393 27L4.95898 0.818181H12.0158L7.66921 27H0.612393ZM12.7317 27L9.51012 19.2273L14.9817 14.2159L20.8113 27H12.7317ZM26.4331 27.4091C25.4359 27.4091 24.622 27.0639 23.9913 26.3736C23.3691 25.6747 23.1092 24.8267 23.2115 23.8295C23.3137 22.858 23.7527 22.027 24.5282 21.3366C25.3123 20.6463 26.2029 20.3011 27.2001 20.3011C28.1461 20.3011 28.9345 20.6463 29.5652 21.3366C30.2044 22.027 30.4728 22.858 30.3706 23.8295C30.3024 24.4943 30.068 25.0994 29.6674 25.6449C29.2754 26.1818 28.7896 26.6122 28.2101 26.9361C27.639 27.2514 27.0467 27.4091 26.4331 27.4091Z" fill="#1B1B1B"/>
</svg>
