<svg width="167" height="48" viewBox="0 0 167 48" fill="none" xmlns="http://www.w3.org/2000/svg">
<path d="M0.31464 45.5853C-0.192913 46.2401 -0.0735967 47.1823 0.581141 47.6898C1.23588 48.1974 2.1781 48.0781 2.68565 47.4233L1.50015 46.5043L0.31464 45.5853ZM76.9999 1.50451L77.018 3.0044L76.9999 1.50451ZM165.111 43.0005C165.937 42.9391 166.557 42.2196 166.496 41.3934L165.495 27.9306C165.433 27.1044 164.714 26.4845 163.888 26.5459C163.062 26.6074 162.442 27.3269 162.503 28.153L163.393 40.12L151.426 41.0098C150.6 41.0712 149.98 41.7907 150.041 42.6169C150.103 43.443 150.822 44.0629 151.648 44.0015L165.111 43.0005ZM1.50015 46.5043C2.68565 47.4233 2.68562 47.4234 2.68559 47.4234C2.68559 47.4234 2.68556 47.4235 2.68555 47.4235C2.68552 47.4235 2.6855 47.4235 2.68549 47.4235C2.68548 47.4236 2.6855 47.4235 2.68556 47.4235C2.68567 47.4233 2.68594 47.423 2.68636 47.4224C2.68719 47.4214 2.68861 47.4195 2.69064 47.4169C2.69468 47.4118 2.7011 47.4035 2.70988 47.3923C2.72745 47.3699 2.75446 47.3355 2.79078 47.2896C2.86343 47.1977 2.97333 47.0597 3.11944 46.8788C3.41167 46.5171 3.84869 45.9839 4.42217 45.3056L3.27667 44.3371L2.13117 43.3687C1.54248 44.0651 1.09124 44.6155 0.78575 44.9937C0.633002 45.1827 0.516678 45.3288 0.437817 45.4285C0.398386 45.4783 0.36832 45.5166 0.347747 45.5429C0.337461 45.556 0.329548 45.5662 0.324025 45.5733C0.321263 45.5768 0.319099 45.5796 0.317534 45.5816C0.316752 45.5826 0.316119 45.5834 0.315636 45.584C0.315395 45.5844 0.315191 45.5846 0.315025 45.5848C0.314942 45.5849 0.314869 45.585 0.314804 45.5851C0.314772 45.5852 0.314731 45.5852 0.314715 45.5852C0.314676 45.5853 0.31464 45.5853 1.50015 46.5043ZM7.02067 40.0963L8.12561 41.1108C9.25795 39.8774 10.5534 38.5069 11.9993 37.0392L10.9307 35.9865L9.86211 34.9338C8.3898 36.4284 7.07011 37.8245 5.91573 39.0819L7.02067 40.0963ZM14.966 32.0279L15.998 33.1165C17.2972 31.8849 18.6785 30.6162 20.1361 29.3286L19.143 28.2044L18.1499 27.0803C16.6645 28.3925 15.2573 29.685 13.9341 30.9393L14.966 32.0279ZM23.4473 24.5396L24.3983 25.6995C25.8092 24.5428 27.2752 23.3846 28.7925 22.2373L27.8879 21.0408L26.9832 19.8444C25.4327 21.0167 23.9357 22.1993 22.4962 23.3796L23.4473 24.5396ZM32.4754 17.7215L33.3282 18.9555C34.8431 17.9086 36.3994 16.8822 37.9937 15.8867L37.1993 14.6143L36.4048 13.342C34.7687 14.3636 33.1735 15.4156 31.6226 16.4875L32.4754 17.7215ZM42.0726 11.7397L42.8007 13.0511C44.4175 12.1534 46.0666 11.2945 47.745 10.4836L47.0925 9.13294L46.44 7.78231C44.7075 8.61932 43.008 9.50462 41.3444 10.4283L42.0726 11.7397ZM52.2594 6.8313L52.8254 8.22039C54.5376 7.52266 56.275 6.88092 58.0348 6.30396L57.5675 4.87861L57.1001 3.45327C55.2702 4.05325 53.4669 4.71946 51.6933 5.44221L52.2594 6.8313ZM63.0045 3.32335L63.3598 4.78068C65.1484 4.34468 66.9559 3.98123 68.7796 3.69883L68.5501 2.2165L68.3205 0.734164C66.4084 1.03026 64.517 1.41075 62.6493 1.86602L63.0045 3.32335ZM74.1707 1.60808L74.262 3.10531C75.1774 3.0495 76.0962 3.01553 77.018 3.0044L76.9999 1.50451L76.9818 0.00461891C76.0103 0.0163454 75.0428 0.0521444 74.0795 0.110863L74.1707 1.60808ZM76.9999 1.50451L77.018 3.0044C78.0137 2.99238 79.0139 3.00513 80.0178 3.04151L80.0721 1.5425L80.1264 0.0434795C79.0758 0.00540872 78.0273 -0.0080017 76.9818 0.00461891L76.9999 1.50451ZM86.1997 2.03757L86.0158 3.52626C87.9977 3.77101 89.9871 4.097 91.9782 4.49551L92.2725 3.02468L92.5669 1.55385C90.5077 1.1417 88.4445 0.803389 86.3835 0.548877L86.1997 2.03757ZM98.2577 4.4292L97.8694 5.87805C99.8144 6.39941 101.754 6.98161 103.684 7.61625L104.153 6.19135L104.621 4.76645C102.642 4.11552 100.649 3.51711 98.6461 2.98035L98.2577 4.4292ZM109.945 8.25817L109.408 9.65849C111.303 10.3864 113.182 11.1577 115.039 11.964L115.636 10.5882L116.234 9.2123C114.34 8.38992 112.421 7.60213 110.483 6.85784L109.945 8.25817ZM121.233 13.1498L120.583 14.5017C122.43 15.3899 124.248 16.3055 126.03 17.2393L126.726 15.9107L127.422 14.5821C125.612 13.6332 123.763 12.702 121.883 11.7979L121.233 13.1498ZM132.132 18.8552L131.394 20.1612C133.203 21.1831 134.963 22.2146 136.669 23.2448L137.444 21.9609L138.22 20.677C136.491 19.6326 134.705 18.5863 132.87 17.5493L132.132 18.8552ZM142.658 25.2087L141.848 26.4711C143.631 27.6157 145.335 28.7437 146.948 29.8389L147.79 28.598L148.633 27.3571C147 26.2481 145.275 25.1058 143.468 23.9463L142.658 25.2087ZM152.83 32.115L151.956 33.3341C153.787 34.6463 155.442 35.872 156.899 36.9755L157.804 35.7798L158.71 34.5841C157.234 33.4659 155.557 32.2245 153.704 30.8959L152.83 32.115ZM162.65 39.5628L161.708 40.7301C162.464 41.3402 163.045 41.8203 163.435 42.1467C163.631 42.3099 163.778 42.4346 163.877 42.518C163.926 42.5597 163.963 42.5911 163.987 42.6117C163.999 42.622 164.008 42.6296 164.013 42.6345C164.016 42.637 164.018 42.6388 164.02 42.6398C164.02 42.6404 164.021 42.6407 164.021 42.6409C164.021 42.641 164.021 42.6411 164.021 42.6411C164.021 42.6411 164.021 42.6411 164.021 42.6411C164.021 42.6411 164.021 42.6411 164.021 42.6411C164.021 42.641 164.021 42.641 165 41.5046C165.979 40.3682 165.979 40.3682 165.979 40.3682C165.979 40.3682 165.979 40.3681 165.979 40.3681C165.979 40.368 165.979 40.368 165.979 40.3679C165.979 40.3677 165.978 40.3675 165.978 40.3673C165.977 40.3668 165.977 40.3661 165.976 40.3653C165.974 40.3636 165.971 40.3612 165.967 40.3582C165.96 40.3521 165.95 40.3433 165.937 40.3317C165.91 40.3087 165.87 40.2749 165.818 40.2308C165.714 40.1425 165.56 40.0127 165.359 39.8443C164.956 39.5077 164.362 39.0168 163.592 38.3955L162.65 39.5628ZM0.31464 45.5853C-0.192913 46.2401 -0.0735967 47.1823 0.581141 47.6898C1.23588 48.1974 2.1781 48.0781 2.68565 47.4233L1.50015 46.5043L0.31464 45.5853ZM76.9999 1.50451L77.018 3.0044L76.9999 1.50451ZM165.111 43.0005C165.937 42.9391 166.557 42.2196 166.496 41.3934L165.495 27.9306C165.433 27.1044 164.714 26.4845 163.888 26.5459C163.062 26.6074 162.442 27.3269 162.503 28.153L163.393 40.12L151.426 41.0098C150.6 41.0712 149.98 41.7907 150.041 42.6169C150.103 43.443 150.822 44.0629 151.648 44.0015L165.111 43.0005ZM1.50015 46.5043C2.68565 47.4233 2.68562 47.4234 2.68559 47.4234C2.68559 47.4234 2.68556 47.4235 2.68555 47.4235C2.68552 47.4235 2.6855 47.4235 2.68549 47.4235C2.68548 47.4236 2.6855 47.4235 2.68556 47.4235C2.68567 47.4233 2.68594 47.423 2.68636 47.4224C2.68719 47.4214 2.68861 47.4195 2.69064 47.4169C2.69468 47.4118 2.7011 47.4035 2.70988 47.3923C2.72745 47.3699 2.75446 47.3355 2.79078 47.2896C2.86343 47.1977 2.97333 47.0597 3.11944 46.8788C3.41167 46.5171 3.84869 45.9839 4.42217 45.3056L3.27667 44.3371L2.13117 43.3687C1.54248 44.0651 1.09124 44.6155 0.78575 44.9937C0.633002 45.1827 0.516678 45.3288 0.437817 45.4285C0.398386 45.4783 0.36832 45.5166 0.347747 45.5429C0.337461 45.556 0.329548 45.5662 0.324025 45.5733C0.321263 45.5768 0.319099 45.5796 0.317534 45.5816C0.316752 45.5826 0.316119 45.5834 0.315636 45.584C0.315395 45.5844 0.315191 45.5846 0.315025 45.5848C0.314942 45.5849 0.314869 45.585 0.314804 45.5851C0.314772 45.5852 0.314731 45.5852 0.314715 45.5852C0.314676 45.5853 0.31464 45.5853 1.50015 46.5043ZM7.02067 40.0963L8.12561 41.1108C9.25795 39.8774 10.5534 38.5069 11.9993 37.0392L10.9307 35.9865L9.86211 34.9338C8.3898 36.4284 7.07011 37.8245 5.91573 39.0819L7.02067 40.0963ZM14.966 32.0279L15.998 33.1165C17.2972 31.8849 18.6785 30.6162 20.1361 29.3286L19.143 28.2044L18.1499 27.0803C16.6645 28.3925 15.2573 29.685 13.9341 30.9393L14.966 32.0279ZM23.4473 24.5396L24.3983 25.6995C25.8092 24.5428 27.2752 23.3846 28.7925 22.2373L27.8879 21.0408L26.9832 19.8444C25.4327 21.0167 23.9357 22.1993 22.4962 23.3796L23.4473 24.5396ZM32.4754 17.7215L33.3282 18.9555C34.8431 17.9086 36.3994 16.8822 37.9937 15.8867L37.1993 14.6143L36.4048 13.342C34.7687 14.3636 33.1735 15.4156 31.6226 16.4875L32.4754 17.7215ZM42.0726 11.7397L42.8007 13.0511C44.4175 12.1534 46.0666 11.2945 47.745 10.4836L47.0925 9.13294L46.44 7.78231C44.7075 8.61932 43.008 9.50462 41.3444 10.4283L42.0726 11.7397ZM52.2594 6.8313L52.8254 8.22039C54.5376 7.52266 56.275 6.88092 58.0348 6.30396L57.5675 4.87861L57.1001 3.45327C55.2702 4.05325 53.4669 4.71946 51.6933 5.44221L52.2594 6.8313ZM63.0045 3.32335L63.3598 4.78068C65.1484 4.34468 66.9559 3.98123 68.7796 3.69883L68.5501 2.2165L68.3205 0.734164C66.4084 1.03026 64.517 1.41075 62.6493 1.86602L63.0045 3.32335ZM74.1707 1.60808L74.262 3.10531C75.1774 3.0495 76.0962 3.01553 77.018 3.0044L76.9999 1.50451L76.9818 0.00461891C76.0103 0.0163454 75.0428 0.0521444 74.0795 0.110863L74.1707 1.60808ZM76.9999 1.50451L77.018 3.0044C78.0137 2.99238 79.0139 3.00513 80.0178 3.04151L80.0721 1.5425L80.1264 0.0434795C79.0758 0.00540872 78.0273 -0.0080017 76.9818 0.00461891L76.9999 1.50451ZM86.1997 2.03757L86.0158 3.52626C87.9977 3.77101 89.9871 4.097 91.9782 4.49551L92.2725 3.02468L92.5669 1.55385C90.5077 1.1417 88.4445 0.803389 86.3835 0.548877L86.1997 2.03757ZM98.2577 4.4292L97.8694 5.87805C99.8144 6.39941 101.754 6.98161 103.684 7.61625L104.153 6.19135L104.621 4.76645C102.642 4.11552 100.649 3.51711 98.6461 2.98035L98.2577 4.4292ZM109.945 8.25817L109.408 9.65849C111.303 10.3864 113.182 11.1577 115.039 11.964L115.636 10.5882L116.234 9.2123C114.34 8.38992 112.421 7.60213 110.483 6.85784L109.945 8.25817ZM121.233 13.1498L120.583 14.5017C122.43 15.3899 124.248 16.3055 126.03 17.2393L126.726 15.9107L127.422 14.5821C125.612 13.6332 123.763 12.702 121.883 11.7979L121.233 13.1498ZM132.132 18.8552L131.394 20.1612C133.203 21.1831 134.963 22.2146 136.669 23.2448L137.444 21.9609L138.22 20.677C136.491 19.6326 134.705 18.5863 132.87 17.5493L132.132 18.8552ZM142.658 25.2087L141.848 26.4711C143.631 27.6157 145.335 28.7437 146.948 29.8389L147.79 28.598L148.633 27.3571C147 26.2481 145.275 25.1058 143.468 23.9463L142.658 25.2087ZM152.83 32.115L151.956 33.3341C153.787 34.6463 155.442 35.872 156.899 36.9755L157.804 35.7798L158.71 34.5841C157.234 33.4659 155.557 32.2245 153.704 30.8959L152.83 32.115ZM162.65 39.5628L161.708 40.7301C162.464 41.3402 163.045 41.8203 163.435 42.1467C163.631 42.3099 163.778 42.4346 163.877 42.518C163.926 42.5597 163.963 42.5911 163.987 42.6117C163.999 42.622 164.008 42.6296 164.013 42.6345C164.016 42.637 164.018 42.6388 164.02 42.6398C164.02 42.6404 164.021 42.6407 164.021 42.6409C164.021 42.641 164.021 42.6411 164.021 42.6411C164.021 42.6411 164.021 42.6411 164.021 42.6411C164.021 42.6411 164.021 42.6411 164.021 42.6411C164.021 42.641 164.021 42.641 165 41.5046C165.979 40.3682 165.979 40.3682 165.979 40.3682C165.979 40.3682 165.979 40.3681 165.979 40.3681C165.979 40.368 165.979 40.368 165.979 40.3679C165.979 40.3677 165.978 40.3675 165.978 40.3673C165.977 40.3668 165.977 40.3661 165.976 40.3653C165.974 40.3636 165.971 40.3612 165.967 40.3582C165.96 40.3521 165.95 40.3433 165.937 40.3317C165.91 40.3087 165.87 40.2749 165.818 40.2308C165.714 40.1425 165.56 40.0127 165.359 39.8443C164.956 39.5077 164.362 39.0168 163.592 38.3955L162.65 39.5628Z" fill="#FDC344" fill-opacity="0.5"/>
</svg>
